/* XPM */
static char *a0f1h_lhrwn[] = {
/* columns rows colors chars-per-pixel */
"16 16 58 1 ",
"  c #FFFA8C",
". c #FFFB8D",
"X c #F0ED90",
"o c #FFFB93",
"O c #FFFB94",
"+ c #FCF99A",
"@ c #FFFB9D",
"# c #FFFC9D",
"$ c #EEEBAB",
"% c #FFFCA0",
"& c #FFFCA2",
"* c #FFFCA6",
"= c #FCF9AB",
"- c #FFFCA8",
"; c #FFFCA9",
": c #FAF7B3",
"> c #FFFCB2",
", c #FCFAB6",
"< c #FFFCB4",
"1 c #FFFCB9",
"2 c #FFFCBB",
"3 c #FDFCC7",
"4 c #FEFCCF",
"5 c #FFFECE",
"6 c #ECEBD4",
"7 c #EFEED9",
"8 c #FDFBD4",
"9 c #FDFCD6",
"0 c #FEFDDB",
"q c #FFFEDE",
"w c #E7E7E8",
"e c #E9E9EA",
"r c #EFEFEA",
"t c #ECECEC",
"y c #EEEEEE",
"u c #F2F2E3",
"i c #F5F5E7",
"p c #FFFEE0",
"a c #FCFCE7",
"s c #F7F6EB",
"d c #F7F6EC",
"f c #F8F7ED",
"g c #FCFBEE",
"h c #FFFEEC",
"j c #EFEFF0",
"k c #F0F0F1",
"l c #F1F1F2",
"z c #F7F7F0",
"x c #F3F3F5",
"c c #F4F4F6",
"v c #FFFFF3",
"b c #FAFAF4",
"n c #FFFFF5",
"m c #F9F9F9",
"M c #F9F9FA",
"N c #FBFBFC",
"B c #FCFCFC",
"V c #FFFFFF",
/* pixels */
"VVVVVVVVVVVVVVVV",
"VVVVVVVVmVVVVVVV",
"VVVVVlxllxxNVVVV",
"VVVmjd5118zjmVVV",
"VVmla%#:$X-gjmVV",
"VVlb*-nlxu&>bxVV",
"VVjp.pVllxqohjVV",
"Vmx5ovxlcwiOqxmV",
"Vmx5onmyylnoqxmV",
"VNlp.pVe630OhjVV",
"VVlb*-dwh*.>mlVV",
"VVmja@+,1@O=rmVV",
"VVVmld5128s7mVVV",
"VVVVmllllllVVVVV",
"VVVVVVVVVVVVVVVV",
"VVVVVVVVVVVVVVVV"
};
