/* XPM */
static char *agsfi_kz3f9[] = {
/* columns rows colors chars-per-pixel */
"64 64 108 2 ",
"   c #C4C064",
".  c #D4D068",
"X  c #D6D26A",
"o  c #D3D072",
"O  c #E0DC6E",
"+  c #E3DF7C",
"@  c #F5F17A",
"#  c #FFFA7D",
"$  c #FFFA7F",
"%  c #969696",
"&  c #ABABAB",
"*  c #ADADAD",
"=  c #B5B5B5",
"-  c #B7B7B7",
";  c #BBBBBB",
":  c #BFBFBF",
">  c #E8E48F",
",  c #FFFA81",
"<  c #FFFC80",
"1  c #FFFA84",
"2  c #FFFA86",
"3  c #FFFA88",
"4  c #FFFB8A",
"5  c #FFFB8F",
"6  c #F4F092",
"7  c #FFFB90",
"8  c #FFFB91",
"9  c #FFFB94",
"0  c #FFFB95",
"q  c #FFFB98",
"w  c #FFFB9E",
"e  c #FFFB9F",
"r  c #C5C3A1",
"t  c #C2C2B7",
"y  c #C4C3BA",
"u  c #FFFBA0",
"i  c #FFFBA2",
"p  c #FFFBA4",
"a  c #FFFBA6",
"s  c #FFFCA9",
"d  c #FFFCAA",
"f  c #FFFCAE",
"g  c #FFFCAF",
"h  c #E6E4B0",
"j  c #F9F8B2",
"k  c #FFFCB3",
"l  c #FFFCB4",
"z  c #FFFCB6",
"x  c #FFFCB9",
"c  c #FFFCBA",
"v  c #FFFCBD",
"b  c #FFFCBE",
"n  c #C3C3C3",
"m  c #C2C2C4",
"M  c #C4C4C4",
"N  c #C7C7C7",
"B  c #C8C8C8",
"V  c #CBCBCB",
"C  c #CCCCCC",
"Z  c #D0D0D0",
"A  c #D2D2D2",
"S  c #D3D3D4",
"D  c #D5D5D5",
"F  c #D7D7D7",
"G  c #D9D9D9",
"H  c #DBDBDC",
"J  c #DCDCDC",
"K  c #DDDDDD",
"L  c #DFDFDF",
"P  c #E6E5CB",
"I  c #FFFDC2",
"U  c #FCFBC5",
"Y  c #FFFDC6",
"T  c #FFFDC8",
"R  c #FFFDC9",
"E  c #FFFDCC",
"W  c #E5E5D9",
"Q  c #F0EFD2",
"!  c #FFFDD5",
"~  c #FFFED8",
"^  c #FFFEDB",
"/  c #FFFEDD",
"(  c #FFFEDF",
")  c #E1E1E1",
"_  c #E4E4E3",
"`  c #E6E6E6",
"'  c #E7E7E7",
"]  c #E8E8E8",
"[  c #EBEBEB",
"{  c #EEEEEE",
"}  c #F3F2E3",
"|  c #FFFEE1",
" . c #FFFEE5",
".. c #FFFEE9",
"X. c #FFFEED",
"o. c #EFEFF0",
"O. c #F0F0F0",
"+. c #F3F3F3",
"@. c #F4F4F4",
"#. c #F6F6F6",
"$. c #F7F7F7",
"%. c #FFFFF3",
"&. c #FDFCF4",
"*. c #F8F8F8",
"=. c #FAFAFA",
"-. c #FFFFFB",
";. c #FCFCFC",
":. c #FFFFFF",
/* pixels */
":.:.:.:.:.:.:.:.:.:.:.:.:.:.:.:.:.:.:.:.:.:.:.:.:.:.:.:.:.:.:.:.:.:.:.:.:.:.:.:.:.:.:.:.:.:.:.:.:.:.:.:.:.:.:.:.:.:.:.:.:.:.:.:.",
":.:.:.:.:.:.:.:.:.:.:.:.:.:.:.:.:.:.:.:.:.:.:.:.:.:.:.:.:.:.:.:.:.:.:.:.:.:.:.:.:.:.:.:.:.:.:.:.:.:.:.:.:.:.:.:.:.:.:.:.:.:.:.:.",
":.:.:.:.:.:.:.:.:.:.:.:.:.:.:.:.:.:.:.:.:.:.:.:.:.:.:.:.:.:.:.:.:.:.:.:.:.:.:.:.:.:.:.:.:.:.:.:.:.:.:.:.:.:.:.:.:.:.:.:.:.:.:.:.",
":.:.:.:.:.:.:.:.:.:.:.:.:.:.:.:.:.:.:.:.:.:.:.:.:.:.:.:.:.:.:.:.:.:.:.:.:.:.:.:.:.:.:.:.:.:.:.:.:.:.:.:.:.:.:.:.:.:.:.:.:.:.:.:.",
":.:.:.:.:.:.:.:.:.:.:.:.:.:.:.:.:.:.:.:.:.:.:.:.:.:.:.:.:.:.:.:.:.:.:.:.:.:.:.:.:.:.:.:.:.:.:.:.:.:.:.:.:.:.:.:.:.:.:.:.:.:.:.:.",
":.:.:.:.:.:.:.:.:.:.:.:.:.:.:.:.:.:.:.:.:.:.:.:.:.:.:.:.:.:.:.:.:.:.:.:.:.:.:.:.:.:.:.:.:.:.:.:.:.:.:.:.:.:.:.:.:.:.:.:.:.:.:.:.",
":.:.:.:.:.:.:.:.:.:.:.:.:.:.:.:.:.:.:.:.:.:.:.:.:.:.:.:.:.:.:.:.:.:.:.:.:.:.:.:.:.:.:.:.:.:.:.:.:.:.:.:.:.:.:.:.:.:.:.:.:.:.:.:.",
":.:.:.:.:.:.:.:.:.:.:.:.:.:.:.:.:.:.:.:.:.:.:.:.:.:.:.:.:.:.:.:.:.:.:.:.:.:.:.:.:.:.:.:.:.:.:.:.:.:.:.:.:.:.:.:.:.:.:.:.:.:.:.:.",
":.:.:.:.:.:.:.:.:.:.:.:.:.:.:.:.:.:.:.:.:.:.:.:.:.:.:.:.:.=.#.#.#.=.=.:.:.:.:.:.:.:.:.:.:.:.:.:.:.:.:.:.:.:.:.:.:.:.:.:.:.:.:.:.",
":.:.:.:.:.:.:.:.:.:.:.:.:.:.:.:.:.:.:.:.:.:.:.:.=.{ G C B B B N B B B B A K o.:.:.:.:.:.:.:.:.:.:.:.:.:.:.:.:.:.:.:.:.:.:.:.:.:.",
":.:.:.:.:.:.:.:.:.:.:.:.:.:.:.:.:.:.:.:.:.:.] A N C K { #.=.:.:.:.:.=.#.` G N N D +.:.:.:.:.:.:.:.:.:.:.:.:.:.:.:.:.:.:.:.:.:.:.",
":.:.:.:.:.:.:.:.:.:.:.:.:.:.:.:.:.:.:.:.` B B ` =.:.:.:.:.:.:.:.:.:.:.:.:.:.:.#.K N C { :.:.:.:.:.:.:.:.:.:.:.:.:.:.:.:.:.:.:.:.",
":.:.:.:.:.:.:.:.:.:.:.:.:.:.:.:.:.:.+.N B { :.:.:.:.:.:.:.:.:.:.:.:.:.:.:.:.:.:.:.:.` N A #.:.:.:.:.:.:.:.:.:.:.:.:.:.:.:.:.:.:.",
":.:.:.:.:.:.:.:.:.:.:.:.:.:.:.:.:.K n ` :.:.:.:.:.:.:.-.&. ./ ~ / / X.%.:.:.:.:.:.:.:.=.G n ] :.:.:.:.:.:.:.:.:.:.:.:.:.:.:.:.:.",
":.:.:.:.:.:.:.:.:.:.:.:.:.:.:.=.C C *.:.:.:.:.:.&./ x w 7 3 1 , , 1 5 9 f E X.:.:.:.:.:.:.+.n G :.:.:.:.:.:.:.:.:.:.:.:.:.:.:.:.",
":.:.:.:.:.:.:.:.:.:.:.:.:.:.=.N D :.:.:.:.:.:.T i 1 # # # # , # # , # , # , 7 c ..:.:.:.:.:.=.B A :.:.:.:.:.:.:.:.:.:.:.:.:.:.:.",
":.:.:.:.:.:.:.:.:.:.:.:.:.=.N K :.:.:.:.:.| i , # # , , # # , # , < < # < < # # 7 T %.:.:.:.:.;.C A :.:.:.:.:.:.:.:.:.:.:.:.:.:.",
":.:.:.:.:.:.:.:.:.:.:.:.:.B G :.:.:.:.:.T 3 # # , # # # , 1 3 5 + o X . X X @ # # , f %.:.:.:.:.:.C G :.:.:.:.:.:.:.:.:.:.:.:.:.",
":.:.:.:.:.:.:.:.:.:.:.:.D A :.:.:.:.-.U 1 # , # , # 3 f E | X.} t W P h >   O < # , # i %.:.:.:.:.=.N ` :.:.:.:.:.:.:.:.:.:.:.:.",
":.:.:.:.:.:.:.:.:.:.:.] N =.:.:.:.:.E 1 # , , # 1 z ..:.:.:.:.G H :.:.:.&.r 6 # , # # # d *.:.:.:.:.+.: #.:.:.:.:.:.:.:.:.:.:.:.",
":.:.:.:.:.:.:.:.:.:.=.N { :.:.:.:.| 5 # , , # 7 ! :.:.:.:.:.:.B +.:.:.:.' B %.k , # , # , v :.:.:.:.:.K C :.:.:.:.:.:.:.:.:.:.:.",
":.:.:.:.:.:.:.:.:.:.K A :.:.:.:.&.i # , # # 5 / :.:.:.:.:.:.] C :.:.:.:.A ) :.-.x , , # # 3 ~ :.:.:.:.=.N { :.:.:.:.:.:.:.:.:.:.",
":.:.:.:.:.:.:.:.:.=.n #.:.:.:.:.E 1 , # # 1 E :.:.:.:.:.:.:.C ` :.:.:.=.N #.:.:.&.k # # , # a -.:.:.:.:.` B :.:.:.:.:.:.:.:.:.:.",
":.:.:.:.:.:.:.:.:.) A :.:.:.:.&.w # # , # f -.:.:.:.:.:.:.#.N =.:.:.:.` B :.:.:.:.X.9 # # # 1 ~ :.:.:.:.:.N +.:.:.:.:.:.:.:.:.:.",
":.:.:.:.:.:.:.:.:.B { :.:.:.:.~ 1 , # # 3 | :.:.:.:.:.:.:.K D :.:.:.:.B ` :.:.:.:.:.Y # , # # f :.:.:.:.:.K D :.:.:.:.:.:.:.:.:.",
":.:.:.:.:.:.:.:.+.N :.:.:.:.:.k # # , # a :.:.:.:.:.:.:.:.B o.:.:.:.#.n =.:.:.:.:.:.%.7 # , # 7 X.:.:.:.:.#.N :.:.:.:.:.:.:.:.:.",
":.:.:.:.:.:.:.:.) D :.:.:.:.&.q # # # , T :.:.:.:.:.:.:.+.N :.:.:.:.K A :.:.:.:.:.:.:.l # , # , ! :.:.:.:.:.B +.:.:.:.:.:.:.:.:.",
":.:.:.:.:.:.:.:.A ` :.:.:.:. .3 , , # 3 | :.:.:.:.:.:.:.D K :.:.:.:.B { :.:.:.:.:.:.:.! , # , # v :.:.:.:.:.D ` :.:.:.:.:.:.:.:.",
":.:.:.:.:.:.:.:.B #.:.:.:.:.! , # , # 9 %.:.:.:.:.:.:.=.N #.:.:.:.#.= ) ` ` ` ` { :.:...3 , , # d -.:.:.:.:.) D :.:.:.:.:.:.:.:.",
":.:.:.:.:.:.:.=.N =.:.:.:.:.T # , # # i -.:.:.:.:.:.:.` C :.:.:.:.=.D D D D D C * #.:.%.9 # # # w -.:.:.:.:.{ C :.:.:.:.:.:.:.:.",
":.:.:.:.:.:.:.=.B :.:.:.:.:.v # # # # d :.:.:.:.:.:.:.C ] :.:.:.:.:.:.:.:.:.=.n D :.:.-.i # # # 9 %.:.:.:.:.+.C :.:.:.:.:.:.:.:.",
":.:.:.:.:.:.:.#.B :.:.:.:.:.x # # , # f :.:.:.:.:.:.#.N :.:.:.:.:.:.:.:.:.=.N A :.:.:.-.i # , # 9 %.:.:.:.:.#.B :.:.:.:.:.:.:.:.",
":.:.:.:.:.:.:.#.N :.:.:.:.:.c # # # # z :.:.:.:.:.:.) * B B B n D :.:.:.:.B B :.:.:.:.-.i # , # 9 &.:.:.:.:.#.B :.:.:.:.:.:.:.:.",
":.:.:.:.:.:.:.=.B :.:.:.:.:.v # , # # i :.:.:.:.:.:.=.#.#.#.=.D G :.:.:.A n :.:.:.:.:.-.w # # # 9 &.:.:.:.:.+.B :.:.:.:.:.:.:.:.",
":.:.:.:.:.:.:.=.B =.:.:.:.:.U # # , # i -.:.:.:.:.:.:.:.:.:.:.B #.:.:.G : =.:.:.:.:.:.%.9 # # # w -.:.:.:.:.{ Z :.:.:.:.:.:.:.:.",
":.:.:.:.:.:.:.:.B +.:.:.:.:.! , , # # 7 %.:.:.:.:.:.:.:.:.:.] A :.:.K ; #.:.:.:.:.:.:.X.5 # , # f :.:.:.:.:.) D :.:.:.:.:.:.:.:.",
":.:.:.:.:.:.:.:.A ` :.:.:.:. .3 # # # 1  .:.:.:.:.:.:.:.:.:.A ] :.` ; +.%.-.:.:.:.:.:./ 1 # , # I :.:.:.:.:.D ) :.:.:.:.:.:.:.:.",
":.:.:.:.:.:.:.:.) D :.:.:.:.%.9 # , # , T :.:.:.:.:.:.:.:.#.B :.' = { ..q I -.:.:.:.:.I # , # 1 ~ :.:.:.:.:.N +.:.:.:.:.:.:.:.:.",
":.:.:.:.:.:.:.:.+.N :.:.:.:.:.k # , , # a -.:.:.:.:.:.:.:.K G +.- ] %.w # , z -.:.:.:.i # , # 9 %.:.:.:.:.+.N :.:.:.:.:.:.:.:.:.",
":.:.:.:.:.:.:.:.:.B { :.:.:.:.! , # , # 3 | :.:.:.:.:.:.:.C ] ; ` :.x # # # # f %.:.| 1 , # # z :.:.:.:.:.H D :.:.:.:.:.:.:.:.:.",
":.:.:.:.:.:.:.:.:.) A :.:.:.:.%.q # , # # f -.:.:.:.:.:.] B ; K :.:.| q # # # # a ..k # , # 1 ~ :.:.:.:.:.N +.:.:.:.:.:.:.:.:.:.",
":.:.:.:.:.:.:.:.:.=.n #.:.:.:.:.T , # , , 1 E :.:.:.:.:.C * G :.:.:.:.X.d # , # # 5 1 # , # f :.:.:.:.:.` B :.:.:.:.:.:.:.:.:.:.",
":.:.:.:.:.:.:.:.:.:.H A :.:.:.:.&.i # # , # 7 / :.:.:.#.% A :.:.:.:.:.:.&.x 1 , , # # , # 3 / :.:.:.:.:.N { :.:.:.:.:.:.:.:.:.:.",
":.:.:.:.:.:.:.:.:.:.=.N { :.:.:.:./ 3 , # , # 7 ! :.:.B : :.:.:.:.:.:.:.:.:.T 1 # # , # # z :.:.:.:.:.K V :.:.:.:.:.:.:.:.:.:.:.",
":.:.:.:.:.:.:.:.:.:.:.` N =.:.:.:.:.T , # , # # 3 x .._ #.:.:.:.:.:.:.:.:...x 1 , # , # , i ..:.:.:.+.: #.:.:.:.:.:.:.:.:.:.:.:.",
":.:.:.:.:.:.:.:.:.:.:.:.D A :.:.:.:.:.I 1 # # , # , 7 f E | ..X.X.../ E f 5 # # # , # # , # q / :.=.N ` :.:.:.:.:.:.:.:.:.:.:.:.",
":.:.:.:.:.:.:.:.:.:.:.:.-.B G :.:.:.:.-.T 1 # , , # # # , 1 7 5 5 3 1 # # # , , # 1 9 , # , # q X.B F :.:.:.:.:.:.:.:.:.:.:.:.:.",
":.:.:.:.:.:.:.:.:.:.:.:.:.=.N K :.:.:.:.:./ i , # # , # , , , # # # # , # # # # 9 E &.x , # , Y C A :.:.:.:.:.:.:.:.:.:.:.:.:.:.",
":.:.:.:.:.:.:.:.:.:.:.:.:.:.#.N G :.:.:.:.:.&.T i 1 # # # , # # , # # # # , 9 I X.:.:.-.Y 3 j B S :.:.:.:.:.:.:.:.:.:.:.:.:.:.:.",
":.:.:.:.:.:.:.:.:.:.:.:.:.:.:.=.C C =.:.:.:.:.:.%.~ c i 7 3 1 , , 1 5 q z ! &.:.:.:.:.:.:.Q y K :.:.:.:.:.:.:.:.:.:.:.:.:.:.:.:.",
":.:.:.:.:.:.:.:.:.:.:.:.:.:.:.:.=.K n ` :.:.:.:.:.:.:.-.X. ./ ~ / | X.-.:.:.:.:.:.:.:.=.G m ` :.:.:.:.:.:.:.:.:.:.:.:.:.:.:.:.:.",
":.:.:.:.:.:.:.:.:.:.:.:.:.:.:.:.:.:.+.B B { :.:.:.:.:.:.:.:.:.:.:.:.:.:.:.:.:.:.:.:._ N A =.:.:.:.:.:.:.:.:.:.:.:.:.:.:.:.:.:.:.",
":.:.:.:.:.:.:.:.:.:.:.:.:.:.:.:.:.:.:.:.] B B ` $.:.:.:.:.:.:.:.:.:.:.:.:.:.:.#.K N C o.:.:.:.:.:.:.:.:.:.:.:.:.:.:.:.:.:.:.:.:.",
":.:.:.:.:.:.:.:.:.:.:.:.:.:.:.:.:.:.:.:.:.:.] A N V K { #.=.:.:.:.:.=.+.] G B N D +.:.:.:.:.:.:.:.:.:.:.:.:.:.:.:.:.:.:.:.:.:.:.",
":.:.:.:.:.:.:.:.:.:.:.:.:.:.:.:.:.:.:.:.:.:.:.:.=.] G C B B B B B N N B A K { :.:.:.:.:.:.:.:.:.:.:.:.:.:.:.:.:.:.:.:.:.:.:.:.:.",
":.:.:.:.:.:.:.:.:.:.:.:.:.:.:.:.:.:.:.:.:.:.:.:.:.:.:.:.:.=.#.#.#.=.=.:.:.:.:.:.:.:.:.:.:.:.:.:.:.:.:.:.:.:.:.:.:.:.:.:.:.:.:.:.",
":.:.:.:.:.:.:.:.:.:.:.:.:.:.:.:.:.:.:.:.:.:.:.:.:.:.:.:.:.:.:.:.:.:.:.:.:.:.:.:.:.:.:.:.:.:.:.:.:.:.:.:.:.:.:.:.:.:.:.:.:.:.:.:.",
":.:.:.:.:.:.:.:.:.:.:.:.:.:.:.:.:.:.:.:.:.:.:.:.:.:.:.:.:.:.:.:.:.:.:.:.:.:.:.:.:.:.:.:.:.:.:.:.:.:.:.:.:.:.:.:.:.:.:.:.:.:.:.:.",
":.:.:.:.:.:.:.:.:.:.:.:.:.:.:.:.:.:.:.:.:.:.:.:.:.:.:.:.:.:.:.:.:.:.:.:.:.:.:.:.:.:.:.:.:.:.:.:.:.:.:.:.:.:.:.:.:.:.:.:.:.:.:.:.",
":.:.:.:.:.:.:.:.:.:.:.:.:.:.:.:.:.:.:.:.:.:.:.:.:.:.:.:.:.:.:.:.:.:.:.:.:.:.:.:.:.:.:.:.:.:.:.:.:.:.:.:.:.:.:.:.:.:.:.:.:.:.:.:.",
":.:.:.:.:.:.:.:.:.:.:.:.:.:.:.:.:.:.:.:.:.:.:.:.:.:.:.:.:.:.:.:.:.:.:.:.:.:.:.:.:.:.:.:.:.:.:.:.:.:.:.:.:.:.:.:.:.:.:.:.:.:.:.:.",
":.:.:.:.:.:.:.:.:.:.:.:.:.:.:.:.:.:.:.:.:.:.:.:.:.:.:.:.:.:.:.:.:.:.:.:.:.:.:.:.:.:.:.:.:.:.:.:.:.:.:.:.:.:.:.:.:.:.:.:.:.:.:.:.",
":.:.:.:.:.:.:.:.:.:.:.:.:.:.:.:.:.:.:.:.:.:.:.:.:.:.:.:.:.:.:.:.:.:.:.:.:.:.:.:.:.:.:.:.:.:.:.:.:.:.:.:.:.:.:.:.:.:.:.:.:.:.:.:.",
":.:.:.:.:.:.:.:.:.:.:.:.:.:.:.:.:.:.:.:.:.:.:.:.:.:.:.:.:.:.:.:.:.:.:.:.:.:.:.:.:.:.:.:.:.:.:.:.:.:.:.:.:.:.:.:.:.:.:.:.:.:.:.:."
};
