/* XPM */
static char *ag0jx_cu835[] = {
/* columns rows colors chars-per-pixel */
"32 32 75 1 ",
"  c #ECE773",
". c #ECE779",
"X c #FAF57D",
"o c #FFFA7B",
"O c #FFFA7D",
"+ c #EEEA82",
"@ c #F1ED83",
"# c #FFFA82",
"$ c #FFFA86",
"% c #FFFB86",
"& c #FFFA88",
"* c #FFFB8D",
"= c #FFFB8E",
"- c #FFFB93",
"; c #FFFC90",
": c #FFFB95",
"> c #FFFB9B",
", c #FBF89E",
"< c #FFFB9C",
"1 c #DDDBA3",
"2 c #FFFBA2",
"3 c #FFFBA4",
"4 c #FFFDA5",
"5 c #FFFCAB",
"6 c #FFFCAF",
"7 c #FFFCB4",
"8 c #FEFCB8",
"9 c #FFFCBF",
"0 c #CECECE",
"q c #D1D1D2",
"w c #D9D9D9",
"e c #DBDBDB",
"r c #DFDFDF",
"t c #E0DFC4",
"y c #F7F5C5",
"u c #FFFDC1",
"i c #FFFDC3",
"p c #FFFDC4",
"a c #FFFDC6",
"s c #FFFDCB",
"d c #FFFDCE",
"f c #E3E2D6",
"g c #E1E1DA",
"h c #E6E6DA",
"j c #FFFED3",
"k c #FFFED5",
"l c #F2F1D8",
"z c #FFFEDA",
"x c #FBFADC",
"c c #FFFEDD",
"v c #E0E0E0",
"b c #E3E3E3",
"n c #E4E4E3",
"m c #E4E4E4",
"M c #E7E7E8",
"N c #EAEAEA",
"B c #EBEBEB",
"V c #EBEBEC",
"C c #ECECEC",
"Z c #EFEFEF",
"A c #F0F0E0",
"S c #FAF9E1",
"D c #FFFEE3",
"F c #FFFFE6",
"G c #FFFEEB",
"H c #FFFEED",
"J c #F3F3F3",
"K c #F4F4F4",
"L c #F5F5F5",
"P c #FFFFF3",
"I c #FFFFF4",
"U c #F8F8F8",
"Y c #FBFBFB",
"T c #FFFFFB",
"R c #FFFFFF",
/* pixels */
"RRRRRRRRRRRRRRRRRRRRRRRRRRRRRRRR",
"RRRRRRRRRRRRRRRRRRRRRRRRRRRRRRRR",
"RRRRRRRRRRRRRRRRRRRRRRRRRRRRRRRR",
"RRRRRRRRRRRRRRRRRRRRRRRRRRRRRRRR",
"RRRRRRRRRRRRJNmmmNCLRRRRRRRRRRRR",
"RRRRRRRRRUNvmJUUULCmvCRRRRRRRRRR",
"RRRRRRRRJvNTRRHGGPTRYNvLRRRRRRRR",
"RRRRRRRCvURG9>=&&;4sIRLvJRRRRRRR",
"RRRRRRCvRTs=OO$&+. X<DRUrJRRRRRR",
"RRRRRLvRRi#O:aFAfl1@O=cRUrURRRRR",
"RRRRRvLRz$O2HRRmURvx:O>HRJvRRRRR",
"RRRRJmRT2O-GRRUmRJmRc&O9RRvURRRR",
"RRRRmLRc#OiRRRVCRmJRR7o:IRJNRRRR",
"RRRRvRR9O&DRRRgRUvRRRz#$cRUmRRRR",
"RRRUmRR5O-PRRJmRLwvrMP=OdRRvURRR",
"RRRLmRT2o>TRRvCURRLwJI:oaRRmURRR",
"RRRLmRT2o>TRRmmeCRrNRP:oiRRmURRR",
"RRRLmRR5o-PRRRRMLvNRRP-OdRRvRRRR",
"RRRRnRR9o$DRRRUnvhkRRc$#DRUvRRRR",
"RRRRmLRz$OiRRRNwm7#7T9O>IRJMRRRR",
"RRRRJmRT<o-GRR0wRk=#2-OiRRvLRRRR",
"RRRRRvLRz$O2HVqRRRF:OO-PRJmRRRRR",
"RRRRRLrRRi#O:yxHHDa:Oo&jUvURRRRR",
"RRRRRRCvTTs=OO&==$OO26#,gJRRRRRR",
"RRRRRRRCvURG9>=$&=4jIRytJRRRRRRR",
"RRRRRRRRJrNRRTHHGPRRUVvLRRRRRRRR",
"RRRRRRRRRRNvvLLUULCmvCURRRRRRRRR",
"RRRRRRRRRRRRLNvmmMCLRRRRRRRRRRRR",
"RRRRRRRRRRRRRRRRRRRRRRRRRRRRRRRR",
"RRRRRRRRRRRRRRRRRRRRRRRRRRRRRRRR",
"RRRRRRRRRRRRRRRRRRRRRRRRRRRRRRRR",
"RRRRRRRRRRRRRRRRRRRRRRRRRRRRRRRR"
};
